<svg width="28" height="28" viewBox="0 0 28 28" fill="none" xmlns="http://www.w3.org/2000/svg">
<path d="M13.2488 21.8537C11.0634 21.7398 9.21951 20.8976 7.71707 19.3268C6.21463 17.7561 5.46341 15.8667 5.46341 13.6585C5.46341 11.3821 6.26016 9.44715 7.85366 7.85366C9.44715 6.26016 11.3821 5.46341 13.6585 5.46341C15.8667 5.46341 17.7561 6.21463 19.3268 7.71707C20.8976 9.21951 21.7398 11.0634 21.8537 13.2488L18.9854 12.3951C18.6894 11.1659 18.052 10.1588 17.0732 9.37385C16.0943 8.58894 14.9561 8.19603 13.6585 8.19512C12.1561 8.19512 10.8699 8.73008 9.8 9.8C8.73008 10.8699 8.19512 12.1561 8.19512 13.6585C8.19512 14.9561 8.58803 16.0943 9.37385 17.0732C10.1597 18.052 11.1668 18.6894 12.3951 18.9854L13.2488 21.8537ZM14.8878 27.2488C14.6829 27.2943 14.478 27.3171 14.2732 27.3171H13.6585C11.7691 27.3171 9.9935 26.9583 8.33171 26.2408C6.66992 25.5233 5.22439 24.5503 3.99512 23.322C2.76585 22.0927 1.79291 20.6472 1.07629 18.9854C0.359675 17.3236 0.000910569 15.548 0 13.6585C0 11.7691 0.358764 9.9935 1.07629 8.33171C1.79382 6.66992 2.76676 5.22439 3.99512 3.99512C5.22439 2.76585 6.66992 1.79291 8.33171 1.07629C9.9935 0.359675 11.7691 0.000910569 13.6585 0C15.548 0 17.3236 0.358764 18.9854 1.07629C20.6472 1.79382 22.0927 2.76676 23.322 3.99512C24.5512 5.22439 25.5246 6.66992 26.2421 8.33171C26.9597 9.9935 27.318 11.7691 27.3171 13.6585V14.2732C27.3171 14.478 27.2943 14.6829 27.2488 14.8878L24.5854 14.0683V13.6585C24.5854 10.6081 23.5268 8.02439 21.4098 5.90732C19.2927 3.79024 16.7089 2.73171 13.6585 2.73171C10.6081 2.73171 8.02439 3.79024 5.90732 5.90732C3.79024 8.02439 2.73171 10.6081 2.73171 13.6585C2.73171 16.7089 3.79024 19.2927 5.90732 21.4098C8.02439 23.5268 10.6081 24.5854 13.6585 24.5854H14.0683L14.8878 27.2488ZM25.3024 28L19.4634 22.161L17.7561 27.3171L13.6585 13.6585L27.3171 17.7561L22.161 19.4634L28 25.3024L25.3024 28Z" fill="#5250F3"/>
</svg>
