<svg width="208" height="49" viewBox="0 0 208 49" fill="none" xmlns="http://www.w3.org/2000/svg">
<path d="M13.2488 32.3537C11.0634 32.2398 9.21951 31.3976 7.71707 29.8268C6.21463 28.2561 5.46341 26.3667 5.46341 24.1585C5.46341 21.8821 6.26016 19.9472 7.85366 18.3537C9.44715 16.7602 11.3821 15.9634 13.6585 15.9634C15.8667 15.9634 17.7561 16.7146 19.3268 18.2171C20.8976 19.7195 21.7398 21.5634 21.8537 23.7488L18.9854 22.8951C18.6894 21.6659 18.052 20.6588 17.0732 19.8739C16.0943 19.0889 14.9561 18.696 13.6585 18.6951C12.1561 18.6951 10.8699 19.2301 9.8 20.3C8.73008 21.3699 8.19512 22.6561 8.19512 24.1585C8.19512 25.4561 8.58803 26.5943 9.37385 27.5732C10.1597 28.552 11.1668 29.1894 12.3951 29.4854L13.2488 32.3537ZM14.8878 37.7488C14.6829 37.7943 14.478 37.8171 14.2732 37.8171H13.6585C11.7691 37.8171 9.9935 37.4583 8.33171 36.7408C6.66992 36.0233 5.22439 35.0503 3.99512 33.822C2.76585 32.5927 1.79291 31.1472 1.07629 29.4854C0.359675 27.8236 0.000910569 26.048 0 24.1585C0 22.2691 0.358764 20.4935 1.07629 18.8317C1.79382 17.1699 2.76676 15.7244 3.99512 14.4951C5.22439 13.2659 6.66992 12.2929 8.33171 11.5763C9.9935 10.8597 11.7691 10.5009 13.6585 10.5C15.548 10.5 17.3236 10.8588 18.9854 11.5763C20.6472 12.2938 22.0927 13.2668 23.322 14.4951C24.5512 15.7244 25.5246 17.1699 26.2421 18.8317C26.9597 20.4935 27.318 22.2691 27.3171 24.1585V24.7732C27.3171 24.978 27.2943 25.1829 27.2488 25.3878L24.5854 24.5683V24.1585C24.5854 21.1081 23.5268 18.5244 21.4098 16.4073C19.2927 14.2902 16.7089 13.2317 13.6585 13.2317C10.6081 13.2317 8.02439 14.2902 5.90732 16.4073C3.79024 18.5244 2.73171 21.1081 2.73171 24.1585C2.73171 27.2089 3.79024 29.7927 5.90732 31.9098C8.02439 34.0268 10.6081 35.0854 13.6585 35.0854H14.0683L14.8878 37.7488ZM25.3024 38.5L19.4634 32.661L17.7561 37.8171L13.6585 24.1585L27.3171 28.2561L22.161 29.9634L28 35.8024L25.3024 38.5Z" fill="#5250F3"/>
<path d="M45.4352 16.72C47.1152 16.72 48.6352 17.0667 49.9952 17.76C51.3552 18.4267 52.4218 19.48 53.1952 20.92C53.9952 22.36 54.3952 24.2267 54.3952 26.52V39H45.3552V28.08C45.3552 26.72 45.1152 25.76 44.6352 25.2C44.1552 24.6133 43.5018 24.32 42.6752 24.32C42.0618 24.32 41.4885 24.4667 40.9552 24.76C40.4485 25.0267 40.0352 25.48 39.7152 26.12C39.4218 26.76 39.2752 27.6267 39.2752 28.72V39H30.2352V9.32H39.2752V23.52L37.1152 21.68C37.9685 20.0267 39.1152 18.7867 40.5552 17.96C42.0218 17.1333 43.6485 16.72 45.4352 16.72ZM69.5917 39.4C66.925 39.4 64.5917 38.9067 62.5917 37.92C60.6184 36.9333 59.085 35.5867 57.9917 33.88C56.8984 32.1467 56.3517 30.2 56.3517 28.04C56.3517 25.8267 56.885 23.8667 57.9517 22.16C59.045 20.4533 60.525 19.12 62.3917 18.16C64.285 17.2 66.405 16.72 68.7517 16.72C70.9117 16.72 72.8984 17.1467 74.7117 18C76.5517 18.8533 78.0184 20.12 79.1117 21.8C80.2317 23.48 80.7917 25.56 80.7917 28.04C80.7917 28.36 80.7784 28.72 80.7517 29.12C80.7251 29.4933 80.6984 29.84 80.6717 30.16H63.8317V25.8H75.8717L72.4717 26.96C72.4717 26.1067 72.3117 25.3867 71.9917 24.8C71.6984 24.1867 71.285 23.72 70.7517 23.4C70.2184 23.0533 69.5784 22.88 68.8317 22.88C68.085 22.88 67.4317 23.0533 66.8717 23.4C66.3384 23.72 65.925 24.1867 65.6317 24.8C65.3384 25.3867 65.1917 26.1067 65.1917 26.96V28.32C65.1917 29.2533 65.3784 30.0533 65.7517 30.72C66.125 31.3867 66.6584 31.8933 67.3517 32.24C68.045 32.56 68.885 32.72 69.8717 32.72C70.885 32.72 71.7117 32.5867 72.3517 32.32C73.0184 32.0533 73.7117 31.6533 74.4317 31.12L79.1517 35.88C78.085 37.0267 76.765 37.9067 75.1917 38.52C73.645 39.1067 71.7784 39.4 69.5917 39.4ZM82.4445 39V9.32H91.4845V39H82.4445ZM108.891 39.4C106.998 39.4 105.425 39 104.171 38.2C102.945 37.3733 102.038 36.1333 101.451 34.48C100.865 32.8 100.571 30.6667 100.571 28.08C100.571 25.44 100.838 23.2933 101.371 21.64C101.931 19.96 102.825 18.72 104.051 17.92C105.278 17.12 106.891 16.72 108.891 16.72C110.811 16.72 112.571 17.1867 114.171 18.12C115.771 19.0267 117.051 20.3333 118.011 22.04C118.971 23.72 119.451 25.7333 119.451 28.08C119.451 30.4267 118.971 32.4533 118.011 34.16C117.051 35.84 115.771 37.1333 114.171 38.04C112.571 38.9467 110.811 39.4 108.891 39.4ZM94.2914 46.76V17.12H102.891V20.08L102.931 28.08L103.331 36.08V46.76H94.2914ZM106.731 32.36C107.398 32.36 107.998 32.2 108.531 31.88C109.065 31.56 109.491 31.08 109.811 30.44C110.131 29.8 110.291 29.0133 110.291 28.08C110.291 27.12 110.131 26.32 109.811 25.68C109.491 25.04 109.065 24.56 108.531 24.24C107.998 23.92 107.398 23.76 106.731 23.76C106.065 23.76 105.465 23.92 104.931 24.24C104.398 24.56 103.971 25.04 103.651 25.68C103.331 26.32 103.171 27.12 103.171 28.08C103.171 29.0133 103.331 29.8 103.651 30.44C103.971 31.08 104.398 31.56 104.931 31.88C105.465 32.2 106.065 32.36 106.731 32.36ZM130.699 39.4C128.806 39.4 127.046 38.9467 125.419 38.04C123.819 37.1067 122.539 35.8 121.579 34.12C120.619 32.4133 120.139 30.3867 120.139 28.04C120.139 25.6933 120.619 23.68 121.579 22C122.539 20.2933 123.819 18.9867 125.419 18.08C127.046 17.1733 128.806 16.72 130.699 16.72C132.619 16.72 134.193 17.1333 135.419 17.96C136.646 18.76 137.553 20 138.139 21.68C138.726 23.3333 139.019 25.4533 139.019 28.04C139.019 30.6533 138.739 32.8 138.179 34.48C137.646 36.16 136.766 37.4 135.539 38.2C134.339 39 132.726 39.4 130.699 39.4ZM132.859 32.36C133.526 32.36 134.126 32.2 134.659 31.88C135.193 31.56 135.619 31.08 135.939 30.44C136.259 29.7733 136.419 28.9733 136.419 28.04C136.419 27.08 136.259 26.2933 135.939 25.68C135.619 25.04 135.193 24.56 134.659 24.24C134.126 23.92 133.526 23.76 132.859 23.76C132.193 23.76 131.593 23.92 131.059 24.24C130.526 24.56 130.099 25.04 129.779 25.68C129.459 26.2933 129.299 27.08 129.299 28.04C129.299 28.9733 129.459 29.7733 129.779 30.44C130.099 31.08 130.526 31.56 131.059 31.88C131.593 32.2 132.193 32.36 132.859 32.36ZM136.699 39V36.04L136.659 28.04L136.259 20.04V9.32H145.299V39H136.699ZM160.182 39.4C157.516 39.4 155.182 38.9067 153.182 37.92C151.209 36.9333 149.676 35.5867 148.582 33.88C147.489 32.1467 146.942 30.2 146.942 28.04C146.942 25.8267 147.476 23.8667 148.542 22.16C149.636 20.4533 151.116 19.12 152.982 18.16C154.876 17.2 156.996 16.72 159.342 16.72C161.502 16.72 163.489 17.1467 165.302 18C167.142 18.8533 168.609 20.12 169.702 21.8C170.822 23.48 171.382 25.56 171.382 28.04C171.382 28.36 171.369 28.72 171.342 29.12C171.316 29.4933 171.289 29.84 171.262 30.16H154.422V25.8H166.462L163.062 26.96C163.062 26.1067 162.902 25.3867 162.582 24.8C162.289 24.1867 161.876 23.72 161.342 23.4C160.809 23.0533 160.169 22.88 159.422 22.88C158.676 22.88 158.022 23.0533 157.462 23.4C156.929 23.72 156.516 24.1867 156.222 24.8C155.929 25.3867 155.782 26.1067 155.782 26.96V28.32C155.782 29.2533 155.969 30.0533 156.342 30.72C156.716 31.3867 157.249 31.8933 157.942 32.24C158.636 32.56 159.476 32.72 160.462 32.72C161.476 32.72 162.302 32.5867 162.942 32.32C163.609 32.0533 164.302 31.6533 165.022 31.12L169.742 35.88C168.676 37.0267 167.356 37.9067 165.782 38.52C164.236 39.1067 162.369 39.4 160.182 39.4ZM178.845 39L170.045 17.12H179.325L186.005 34.88H181.325L188.445 17.12H197.005L188.205 39H178.845ZM197.867 28.28L196.067 11H206.867L205.067 28.28H197.867ZM201.467 39.4C199.92 39.4 198.653 38.9333 197.667 38C196.68 37.04 196.187 35.9067 196.187 34.6C196.187 33.2667 196.68 32.1467 197.667 31.24C198.653 30.3333 199.92 29.88 201.467 29.88C203.04 29.88 204.307 30.3333 205.267 31.24C206.253 32.1467 206.747 33.2667 206.747 34.6C206.747 35.9067 206.253 37.04 205.267 38C204.307 38.9333 203.04 39.4 201.467 39.4Z" fill="#5250F3"/>
</svg>
